<svg width="60" height="60" viewBox="0 0 60 60" fill="none" xmlns="http://www.w3.org/2000/svg">
<g filter="url(#filter0_if_3124_18977)" data-figma-bg-blur-radius="30">
<rect x="4.60156" y="4.6001" width="50" height="49.6212" rx="15" fill="#DEE8F8" fill-opacity="0.5"></rect>
</g>
<g opacity="0.5" filter="url(#filter1_dif_3124_18977)" data-figma-bg-blur-radius="30">
<path d="M29.6016 46.6001C38.9904 46.6001 46.6016 38.9889 46.6016 29.6001C46.6016 20.2113 38.9904 12.6001 29.6016 12.6001C20.2127 12.6001 12.6016 20.2113 12.6016 29.6001C12.6016 38.9889 20.2127 46.6001 29.6016 46.6001Z" fill="url(#paint0_linear_3124_18977)"></path>
</g>
<path opacity="0.9" fill-rule="evenodd" clip-rule="evenodd" d="M23.9279 19.8369C22.8429 19.8369 21.8024 20.2678 21.035 21.0349C20.2677 21.8019 19.8364 22.8423 19.8359 23.9273V34.8393C19.8359 35.9246 20.2671 36.9654 21.0345 37.7328C21.8019 38.5002 22.8427 38.9313 23.9279 38.9313H34.8399C35.9249 38.9309 36.9653 38.4996 37.7324 37.7323C38.4995 36.9649 38.9304 35.9243 38.9304 34.8393V23.9273C38.93 22.8426 38.4989 21.8024 37.7318 21.0354C36.9648 20.2684 35.9247 19.8373 34.8399 19.8369H23.9279ZM36.0169 23.9336C36.0169 24.2462 35.8928 24.546 35.6717 24.767C35.4507 24.988 35.1509 25.1122 34.8384 25.1122C34.5258 25.1122 34.226 24.988 34.005 24.767C33.784 24.546 33.6598 24.2462 33.6598 23.9336C33.6598 23.6211 33.784 23.3213 34.005 23.1003C34.226 22.8792 34.5258 22.7551 34.8384 22.7551C35.1509 22.7551 35.4507 22.8792 35.6717 23.1003C35.8928 23.3213 36.0169 23.6211 36.0169 23.9336ZM29.3855 26.1148C28.5186 26.1148 27.6873 26.4591 27.0743 27.0721C26.4613 27.6851 26.1169 28.5165 26.1169 29.3833C26.1169 30.2502 26.4613 31.0816 27.0743 31.6946C27.6873 32.3075 28.5186 32.6519 29.3855 32.6519C30.2524 32.6519 31.0838 32.3075 31.6967 31.6946C32.3097 31.0816 32.6541 30.2502 32.6541 29.3833C32.6541 28.5165 32.3097 27.6851 31.6967 27.0721C31.0838 26.4591 30.2524 26.1148 29.3855 26.1148ZM24.5439 29.3833C24.5439 28.0997 25.0539 26.8686 25.9615 25.9609C26.8692 25.0533 28.1003 24.5433 29.3839 24.5433C30.6676 24.5433 31.8987 25.0533 32.8063 25.9609C33.714 26.8686 34.2239 28.0997 34.2239 29.3833C34.2239 30.667 33.714 31.8981 32.8063 32.8057C31.8987 33.7134 30.6676 34.2233 29.3839 34.2233C28.1003 34.2233 26.8692 33.7134 25.9615 32.8057C25.0539 31.8981 24.5439 30.667 24.5439 29.3833Z" fill="url(#paint1_linear_3124_18977)"></path>
<defs>
<filter id="filter0_if_3124_18977" x="-25.3984" y="-25.3999" width="110" height="109.621" filterUnits="userSpaceOnUse" color-interpolation-filters="sRGB">
<feFlood flood-opacity="0" result="BackgroundImageFix"></feFlood>
<feBlend mode="normal" in="SourceGraphic" in2="BackgroundImageFix" result="shape"></feBlend>
<feColorMatrix in="SourceAlpha" type="matrix" values="0 0 0 0 0 0 0 0 0 0 0 0 0 0 0 0 0 0 127 0" result="hardAlpha"></feColorMatrix>
<feOffset dx="1" dy="1"></feOffset>
<feGaussianBlur stdDeviation="0.1"></feGaussianBlur>
<feComposite in2="hardAlpha" operator="arithmetic" k2="-1" k3="1"></feComposite>
<feColorMatrix type="matrix" values="0 0 0 0 1 0 0 0 0 1 0 0 0 0 1 0 0 0 0.25 0"></feColorMatrix>
<feBlend mode="normal" in2="shape" result="effect1_innerShadow_3124_18977"></feBlend>
<feGaussianBlur stdDeviation="0.1" result="effect2_foregroundBlur_3124_18977"></feGaussianBlur>
</filter>
<clipPath id="bgblur_0_3124_18977_clip_path" transform="translate(25.3984 25.3999)"><rect x="4.60156" y="4.6001" width="50" height="49.6212" rx="15"></rect>
</clipPath><filter id="filter1_dif_3124_18977" x="-17.3984" y="-17.3999" width="94" height="94" filterUnits="userSpaceOnUse" color-interpolation-filters="sRGB">
<feFlood flood-opacity="0" result="BackgroundImageFix"></feFlood>
<feColorMatrix in="SourceAlpha" type="matrix" values="0 0 0 0 0 0 0 0 0 0 0 0 0 0 0 0 0 0 127 0" result="hardAlpha"></feColorMatrix>
<feOffset></feOffset>
<feGaussianBlur stdDeviation="6.3"></feGaussianBlur>
<feComposite in2="hardAlpha" operator="out"></feComposite>
<feColorMatrix type="matrix" values="0 0 0 0 0.886275 0 0 0 0 0.921569 0 0 0 0 0.976471 0 0 0 1 0"></feColorMatrix>
<feBlend mode="normal" in2="BackgroundImageFix" result="effect1_dropShadow_3124_18977"></feBlend>
<feBlend mode="normal" in="SourceGraphic" in2="effect1_dropShadow_3124_18977" result="shape"></feBlend>
<feColorMatrix in="SourceAlpha" type="matrix" values="0 0 0 0 0 0 0 0 0 0 0 0 0 0 0 0 0 0 127 0" result="hardAlpha"></feColorMatrix>
<feOffset dx="1" dy="1"></feOffset>
<feGaussianBlur stdDeviation="0.1"></feGaussianBlur>
<feComposite in2="hardAlpha" operator="arithmetic" k2="-1" k3="1"></feComposite>
<feColorMatrix type="matrix" values="0 0 0 0 1 0 0 0 0 1 0 0 0 0 1 0 0 0 0.25 0"></feColorMatrix>
<feBlend mode="normal" in2="shape" result="effect2_innerShadow_3124_18977"></feBlend>
<feGaussianBlur stdDeviation="0.1" result="effect3_foregroundBlur_3124_18977"></feGaussianBlur>
</filter>
<clipPath id="bgblur_1_3124_18977_clip_path" transform="translate(17.3984 17.3999)"><path d="M29.6016 46.6001C38.9904 46.6001 46.6016 38.9889 46.6016 29.6001C46.6016 20.2113 38.9904 12.6001 29.6016 12.6001C20.2127 12.6001 12.6016 20.2113 12.6016 29.6001C12.6016 38.9889 20.2127 46.6001 29.6016 46.6001Z"></path>
</clipPath><linearGradient id="paint0_linear_3124_18977" x1="40.4197" y1="35.7819" x2="19.5561" y2="4.87283" gradientUnits="userSpaceOnUse">
<stop stop-color="#0093F7"></stop>
<stop offset="1" stop-color="white"></stop>
</linearGradient>
<linearGradient id="paint1_linear_3124_18977" x1="68.7654" y1="-14.7717" x2="12.0788" y2="43.7049" gradientUnits="userSpaceOnUse">
<stop stop-color="white" stop-opacity="0.25"></stop>
<stop offset="1" stop-color="white"></stop>
</linearGradient>
</defs>
</svg>